<?xml version="1.0" encoding="utf-8"?>
<!-- Generator: Adobe Illustrator 15.1.0, SVG Export Plug-In . SVG Version: 6.00 Build 0)  -->
<!DOCTYPE svg PUBLIC "-//W3C//DTD SVG 1.1//EN" "http://www.w3.org/Graphics/SVG/1.1/DTD/svg11.dtd">
<svg version="1.1"
	 id="Layer_1" xmlns:dc="http://purl.org/dc/elements/1.1/" xmlns:cc="http://creativecommons.org/ns#" xmlns:rdf="http://www.w3.org/1999/02/22-rdf-syntax-ns#" xmlns:svg="http://www.w3.org/2000/svg" xmlns:sodipodi="http://sodipodi.sourceforge.net/DTD/sodipodi-0.dtd" xmlns:inkscape="http://www.inkscape.org/namespaces/inkscape" inkscape:version="0.48.2 r9819" sodipodi:docname="cloud_transparent.svg"
	 xmlns="http://www.w3.org/2000/svg" xmlns:xlink="http://www.w3.org/1999/xlink" x="0px" y="0px" width="800px" height="800px"
	 viewBox="0 0 800 800" enable-background="new 0 0 800 800" xml:space="preserve">
<sodipodi:namedview  id="namedview13" inkscape:window-maximized="1" bordercolor="#666666" pagecolor="#ffffff" inkscape:cy="171.92825" guidetolerance="10" inkscape:cx="1456.1279" gridtolerance="10" objecttolerance="10" inkscape:zoom="0.092709556" borderopacity="1" showgrid="false" inkscape:current-layer="Layer_1" inkscape:window-y="-8" inkscape:window-x="-8" inkscape:window-height="1018" inkscape:window-width="1920" inkscape:pageshadow="2" inkscape:pageopacity="0">
	</sodipodi:namedview>
<g id="g3" transform="matrix(1.5452539,0,0,1.5452539,-10725.828,-10725.055)">
	<g id="g5">
		<g id="g5_1_">
			
				<image overflow="visible" width="694" height="459" xlink:href="81311451.png"  transform="matrix(0.6471 0 0 0.6471 6975.1172 7050.9795)">
			</image>
		</g>
		<g id="g9">
			<path id="path11" inkscape:connector-curvature="0" fill="none" stroke="#3D3D3F" stroke-width="15" d="M7343.97,7179.669
				c0.99-5.167,1.526-10.494,1.526-15.949c0-46.603-37.779-84.382-84.383-84.382c-28.39,0-53.483,14.031-68.775,35.521
				c-9.882-4.058-20.688-6.31-32.031-6.31c-44.044,0-80.189,33.75-84.026,76.795c-1.733-0.134-3.48-0.223-5.25-0.223
				c-37.149,0-67.268,30.116-67.268,67.267c0,37.151,30.119,67.267,67.268,67.267c2.698,0,5.356-0.178,7.97-0.485h245.84
				c39.248,0,71.064-31.816,71.064-71.065C7395.906,7215.492,7373.922,7188.025,7343.97,7179.669L7343.97,7179.669z"/>
		</g>
	</g>
</g>
</svg>
